<?xml version="1.0" encoding="UTF-8"?>
<svg id="Layer_1" xmlns="http://www.w3.org/2000/svg" version="1.1" viewBox="0 0 1052 351">
  <!-- Generator: Adobe Illustrator 30.1.0, SVG Export Plug-In . SVG Version: 2.1.1 Build 136)  -->
  <defs>
    <style>
      .st0 {
        fill: #213b4e;
      }
    </style>
  </defs>
  <g>
    <g>
      <path class="st0" d="M169.54,206.34c-12.2,0-22.12-9.92-22.12-22.12s9.92-22.12,22.12-22.12,22.12,9.92,22.12,22.12-9.92,22.12-22.12,22.12ZM169.54,167.31c-9.32,0-16.91,7.59-16.91,16.91s7.59,16.91,16.91,16.91,16.91-7.59,16.91-16.91-7.59-16.91-16.91-16.91Z"/>
      <path class="st0" d="M169.54,153.53c-1.44,0-2.61-1.17-2.61-2.61v-21.18c0-1.44,1.17-2.61,2.61-2.61s2.61,1.17,2.61,2.61v21.18c0,1.44-1.17,2.61-2.61,2.61Z"/>
      <path class="st0" d="M156.8,156.06c-1.02,0-1.99-.61-2.41-1.61l-8.11-19.57c-.55-1.33.08-2.86,1.41-3.41,1.34-.55,2.86.08,3.41,1.41l8.11,19.57c.55,1.33-.08,2.86-1.41,3.41-.33.14-.67.2-1,.2Z"/>
      <path class="st0" d="M146,163.28c-.67,0-1.33-.25-1.84-.76l-14.98-14.98c-1.02-1.02-1.02-2.67,0-3.69,1.02-1.02,2.67-1.02,3.69,0l14.98,14.98c1.02,1.02,1.02,2.67,0,3.69-.51.51-1.18.76-1.84.76Z"/>
      <path class="st0" d="M138.77,174.08c-.33,0-.67-.06-1-.2l-19.57-8.11c-1.33-.55-1.96-2.08-1.41-3.41.55-1.33,2.07-1.96,3.41-1.41l19.57,8.11c1.33.55,1.96,2.08,1.41,3.41-.42,1-1.39,1.61-2.41,1.61Z"/>
      <path class="st0" d="M136.24,186.83h-21.18c-1.44,0-2.61-1.17-2.61-2.61s1.17-2.61,2.61-2.61h21.18c1.44,0,2.61,1.17,2.61,2.61s-1.17,2.61-2.61,2.61Z"/>
      <path class="st0" d="M119.21,207.68c-1.02,0-1.99-.61-2.41-1.61-.55-1.33.08-2.86,1.41-3.41l19.57-8.11c1.34-.55,2.86.08,3.41,1.41.55,1.33-.08,2.86-1.41,3.41l-19.57,8.11c-.33.14-.67.2-1,.2Z"/>
      <path class="st0" d="M131.02,225.36c-.67,0-1.33-.25-1.84-.76-1.02-1.02-1.02-2.67,0-3.69l14.98-14.98c1.02-1.02,2.67-1.02,3.69,0,1.02,1.02,1.02,2.67,0,3.69l-14.98,14.98c-.51.51-1.18.76-1.84.76Z"/>
      <path class="st0" d="M148.69,237.17c-.33,0-.67-.06-1-.2-1.33-.55-1.96-2.08-1.41-3.41l8.11-19.57c.55-1.33,2.07-1.97,3.41-1.41,1.33.55,1.96,2.08,1.41,3.41l-8.11,19.57c-.42,1-1.39,1.61-2.41,1.61Z"/>
      <path class="st0" d="M169.54,241.32c-1.44,0-2.61-1.17-2.61-2.61v-21.18c0-1.44,1.17-2.61,2.61-2.61s2.61,1.17,2.61,2.61v21.18c0,1.44-1.17,2.61-2.61,2.61Z"/>
      <path class="st0" d="M190.4,237.17c-1.02,0-1.99-.61-2.41-1.61l-8.11-19.57c-.55-1.33.08-2.86,1.41-3.41,1.34-.56,2.86.08,3.41,1.41l8.11,19.57c.55,1.33-.08,2.86-1.41,3.41-.33.14-.67.2-1,.2Z"/>
      <path class="st0" d="M208.07,225.36c-.67,0-1.33-.25-1.84-.76l-14.98-14.98c-1.02-1.02-1.02-2.67,0-3.69s2.67-1.02,3.69,0l14.98,14.98c1.02,1.02,1.02,2.67,0,3.69-.51.51-1.18.76-1.84.76Z"/>
      <path class="st0" d="M219.88,207.68c-.33,0-.67-.06-1-.2l-19.57-8.11c-1.33-.55-1.96-2.08-1.41-3.41.55-1.33,2.07-1.97,3.41-1.41l19.57,8.11c1.33.55,1.96,2.08,1.41,3.41-.42,1-1.39,1.61-2.41,1.61Z"/>
      <path class="st0" d="M224.03,186.83h-21.18c-1.44,0-2.61-1.17-2.61-2.61s1.17-2.61,2.61-2.61h21.18c1.44,0,2.61,1.17,2.61,2.61s-1.17,2.61-2.61,2.61Z"/>
      <path class="st0" d="M200.31,174.08c-1.02,0-1.99-.61-2.41-1.61-.55-1.33.08-2.86,1.41-3.41l19.57-8.11c1.33-.55,2.86.08,3.41,1.41.55,1.33-.08,2.86-1.41,3.41l-19.57,8.11c-.33.14-.67.2-1,.2Z"/>
      <path class="st0" d="M193.09,163.28c-.67,0-1.33-.25-1.84-.76-1.02-1.02-1.02-2.67,0-3.69l14.98-14.98c1.02-1.02,2.67-1.02,3.69,0s1.02,2.67,0,3.69l-14.98,14.98c-.51.51-1.18.76-1.84.76Z"/>
      <path class="st0" d="M182.29,156.06c-.33,0-.67-.06-1-.2-1.33-.55-1.96-2.08-1.41-3.41l8.11-19.57c.55-1.33,2.08-1.97,3.41-1.41,1.33.55,1.96,2.08,1.41,3.41l-8.11,19.57c-.42,1-1.39,1.61-2.41,1.61Z"/>
    </g>
    <g>
      <path class="st0" d="M169.54,117.16c-1.44,0-2.61-1.17-2.61-2.61V45.28c0-1.44,1.17-2.61,2.61-2.61s2.61,1.17,2.61,2.61v69.27c0,1.44-1.17,2.61-2.61,2.61Z"/>
      <g>
        <path class="st0" d="M169.55,89.62c-.96,0-1.88-.53-2.34-1.45l-17.48-35.15c-.64-1.29-.12-2.86,1.17-3.5,1.29-.65,2.86-.12,3.5,1.17l17.48,35.15c.64,1.29.12,2.86-1.17,3.5-.37.19-.77.27-1.16.27Z"/>
        <path class="st0" d="M169.54,89.62c-.39,0-.79-.09-1.16-.27-1.29-.64-1.81-2.21-1.17-3.5l17.48-35.15c.64-1.29,2.21-1.82,3.5-1.17,1.29.64,1.81,2.21,1.17,3.5l-17.48,35.15c-.45.92-1.38,1.45-2.34,1.45Z"/>
      </g>
    </g>
    <g>
      <path class="st0" d="M142.89,122.47c-1.02,0-1.99-.61-2.41-1.61l-26.51-64c-.55-1.33.08-2.86,1.41-3.41,1.33-.55,2.86.08,3.41,1.41l26.51,64c.55,1.33-.08,2.86-1.41,3.41-.33.14-.67.2-1,.2Z"/>
      <g>
        <path class="st0" d="M132.34,97.02c-.61,0-1.22-.21-1.71-.64l-29.6-25.79c-1.09-.95-1.2-2.59-.25-3.68.95-1.09,2.59-1.2,3.68-.25l29.6,25.79c1.09.95,1.2,2.59.25,3.68-.52.59-1.24.89-1.97.89Z"/>
        <path class="st0" d="M132.35,97.02c-.06,0-.12,0-.18,0-1.44-.1-2.52-1.34-2.42-2.78l2.7-39.17c.1-1.44,1.35-2.53,2.78-2.42,1.44.1,2.52,1.34,2.42,2.78l-2.7,39.17c-.09,1.38-1.24,2.43-2.6,2.43Z"/>
      </g>
    </g>
    <g>
      <path class="st0" d="M120.28,137.57c-.67,0-1.33-.25-1.84-.76l-48.98-48.98c-1.02-1.02-1.02-2.67,0-3.69,1.02-1.02,2.67-1.02,3.69,0l48.98,48.98c1.02,1.02,1.02,2.67,0,3.69-.51.51-1.18.76-1.84.76Z"/>
      <g>
        <path class="st0" d="M100.81,118.09c-.28,0-.56-.04-.83-.14l-37.22-12.5c-1.36-.46-2.1-1.94-1.64-3.3.46-1.36,1.94-2.1,3.3-1.64l37.22,12.5c1.36.46,2.1,1.94,1.64,3.3-.37,1.09-1.38,1.78-2.47,1.78Z"/>
        <path class="st0" d="M100.81,118.09c-1.09,0-2.11-.69-2.47-1.78l-12.5-37.22c-.46-1.36.28-2.84,1.64-3.3,1.37-.46,2.84.28,3.3,1.64l12.5,37.22c.46,1.36-.28,2.84-1.64,3.3-.28.09-.56.14-.83.14Z"/>
      </g>
    </g>
    <g>
      <path class="st0" d="M105.18,160.17c-.33,0-.67-.06-1-.2l-64-26.51c-1.33-.55-1.96-2.08-1.41-3.41.55-1.33,2.08-1.97,3.41-1.41l64,26.51c1.33.55,1.96,2.08,1.41,3.41-.42,1-1.39,1.61-2.41,1.61Z"/>
      <g>
        <path class="st0" d="M40.56,152.32c-1.36,0-2.5-1.05-2.6-2.43-.1-1.44.98-2.68,2.42-2.78l39.17-2.7c1.41-.1,2.68.98,2.78,2.42.1,1.44-.98,2.68-2.42,2.78l-39.17,2.7c-.06,0-.12,0-.18,0Z"/>
        <path class="st0" d="M79.73,149.63c-.73,0-1.45-.3-1.97-.89l-25.79-29.6c-.95-1.09-.83-2.73.25-3.68,1.09-.95,2.73-.83,3.68.25l25.79,29.6c.95,1.09.83,2.73-.25,3.68-.49.43-1.11.64-1.71.64Z"/>
      </g>
    </g>
    <g>
      <path class="st0" d="M99.88,186.83H30.61c-1.44,0-2.61-1.17-2.61-2.61s1.17-2.61,2.61-2.61h69.27c1.44,0,2.61,1.17,2.61,2.61s-1.17,2.61-2.61,2.61Z"/>
      <g>
        <path class="st0" d="M37.18,204.31c-.96,0-1.88-.53-2.34-1.45-.64-1.29-.12-2.86,1.17-3.5l35.15-17.48c1.29-.64,2.86-.12,3.5,1.17.64,1.29.12,2.86-1.17,3.5l-35.15,17.48c-.37.19-.77.27-1.16.27Z"/>
        <path class="st0" d="M72.33,186.83c-.39,0-.79-.09-1.16-.27l-35.15-17.48c-1.29-.64-1.81-2.21-1.17-3.5.64-1.29,2.21-1.81,3.5-1.17l35.15,17.48c1.29.64,1.81,2.21,1.17,3.5-.45.92-1.38,1.45-2.34,1.45Z"/>
      </g>
    </g>
    <g>
      <path class="st0" d="M41.19,240c-1.02,0-1.99-.61-2.41-1.61-.55-1.33.08-2.86,1.41-3.41l64-26.51c1.33-.56,2.86.08,3.41,1.41.55,1.33-.08,2.86-1.41,3.41l-64,26.51c-.33.14-.67.2-1,.2Z"/>
      <g>
        <path class="st0" d="M53.94,253.63c-.61,0-1.22-.21-1.71-.64-1.09-.95-1.2-2.59-.25-3.68l25.79-29.6c.95-1.08,2.59-1.2,3.68-.25,1.09.95,1.2,2.59.25,3.68l-25.79,29.6c-.52.59-1.24.89-1.97.89Z"/>
        <path class="st0" d="M79.73,224.03c-.06,0-.12,0-.18,0l-39.17-2.7c-1.44-.1-2.52-1.34-2.42-2.78.1-1.44,1.36-2.52,2.78-2.42l39.17,2.7c1.44.1,2.52,1.34,2.42,2.78-.09,1.38-1.24,2.43-2.6,2.43Z"/>
      </g>
    </g>
    <g>
      <path class="st0" d="M71.3,285.07c-.67,0-1.33-.25-1.84-.76-1.02-1.02-1.02-2.67,0-3.69l48.98-48.98c1.02-1.02,2.67-1.02,3.69,0s1.02,2.67,0,3.69l-48.98,48.98c-.51.51-1.18.76-1.84.76Z"/>
      <g>
        <path class="st0" d="M88.31,292.79c-.28,0-.56-.04-.83-.14-1.36-.46-2.1-1.94-1.64-3.3l12.5-37.22c.46-1.36,1.94-2.1,3.3-1.64,1.36.46,2.1,1.94,1.64,3.3l-12.5,37.22c-.37,1.09-1.38,1.78-2.47,1.78Z"/>
        <path class="st0" d="M63.58,268.07c-1.09,0-2.11-.69-2.47-1.78-.46-1.36.28-2.84,1.64-3.3l37.22-12.5c1.36-.46,2.84.28,3.3,1.64.46,1.36-.28,2.84-1.64,3.3l-37.22,12.5c-.28.09-.56.14-.83.14Z"/>
      </g>
    </g>
    <g>
      <path class="st0" d="M116.37,315.19c-.33,0-.67-.06-1-.2-1.33-.55-1.96-2.08-1.41-3.41l26.51-64c.55-1.33,2.07-1.97,3.41-1.41,1.33.55,1.96,2.08,1.41,3.41l-26.51,64c-.42,1-1.39,1.61-2.41,1.61Z"/>
      <g>
        <path class="st0" d="M135.04,315.81c-1.36,0-2.5-1.05-2.6-2.43l-2.7-39.17c-.1-1.44.98-2.68,2.42-2.78,1.43-.13,2.68.98,2.78,2.42l2.7,39.17c.1,1.44-.98,2.68-2.42,2.78-.06,0-.12,0-.18,0Z"/>
        <path class="st0" d="M102.74,302.43c-.73,0-1.45-.3-1.97-.89-.95-1.09-.83-2.73.25-3.68l29.6-25.79c1.09-.95,2.73-.83,3.68.25.95,1.09.83,2.73-.25,3.68l-29.6,25.79c-.49.43-1.11.64-1.71.64Z"/>
      </g>
    </g>
    <g>
      <path class="st0" d="M169.54,325.77c-1.44,0-2.61-1.17-2.61-2.61v-69.27c0-1.44,1.17-2.61,2.61-2.61s2.61,1.17,2.61,2.61v69.27c0,1.44-1.17,2.61-2.61,2.61Z"/>
      <g>
        <path class="st0" d="M187.03,319.2c-.96,0-1.88-.53-2.34-1.45l-17.48-35.15c-.64-1.29-.12-2.86,1.17-3.5,1.29-.64,2.86-.12,3.5,1.17l17.48,35.15c.64,1.29.12,2.86-1.17,3.5-.37.19-.77.27-1.16.27Z"/>
        <path class="st0" d="M152.06,319.2c-.39,0-.79-.09-1.16-.27-1.29-.64-1.81-2.21-1.17-3.5l17.48-35.15c.64-1.29,2.21-1.81,3.5-1.17,1.29.64,1.81,2.21,1.17,3.5l-17.48,35.15c-.45.92-1.38,1.45-2.34,1.45Z"/>
      </g>
    </g>
    <g>
      <path class="st0" d="M222.71,315.19c-1.02,0-1.99-.61-2.41-1.61l-26.51-64c-.55-1.33.08-2.86,1.41-3.41,1.34-.55,2.86.08,3.41,1.41l26.51,64c.55,1.33-.08,2.86-1.41,3.41-.33.14-.67.2-1,.2Z"/>
      <g>
        <path class="st0" d="M236.35,302.43c-.61,0-1.22-.21-1.71-.64l-29.6-25.79c-1.09-.95-1.2-2.59-.25-3.68.95-1.09,2.59-1.2,3.68-.25l29.6,25.79c1.09.95,1.2,2.59.25,3.68-.52.59-1.24.89-1.97.89Z"/>
        <path class="st0" d="M204.05,315.81c-.06,0-.12,0-.18,0-1.44-.1-2.52-1.34-2.42-2.78l2.7-39.17c.1-1.44,1.35-2.56,2.78-2.42,1.44.1,2.52,1.34,2.42,2.78l-2.7,39.17c-.09,1.38-1.24,2.43-2.6,2.43Z"/>
      </g>
    </g>
    <g>
      <path class="st0" d="M267.79,285.07c-.67,0-1.33-.25-1.84-.76l-48.98-48.98c-1.02-1.02-1.02-2.67,0-3.69s2.67-1.02,3.69,0l48.98,48.98c1.02,1.02,1.02,2.67,0,3.69-.51.51-1.18.76-1.84.76Z"/>
      <g>
        <path class="st0" d="M275.5,268.07c-.28,0-.56-.04-.83-.14l-37.22-12.5c-1.36-.46-2.1-1.94-1.64-3.3.46-1.36,1.94-2.1,3.3-1.64l37.22,12.5c1.36.46,2.1,1.94,1.64,3.3-.37,1.09-1.38,1.78-2.47,1.78Z"/>
        <path class="st0" d="M250.78,292.79c-1.09,0-2.11-.69-2.47-1.78l-12.5-37.22c-.46-1.36.28-2.84,1.64-3.3,1.37-.46,2.84.28,3.3,1.64l12.5,37.22c.46,1.36-.28,2.84-1.64,3.3-.28.09-.56.14-.83.14Z"/>
      </g>
    </g>
    <g>
      <path class="st0" d="M297.9,240c-.33,0-.67-.06-1-.2l-64-26.51c-1.33-.55-1.96-2.08-1.41-3.41.55-1.33,2.08-1.97,3.41-1.41l64,26.51c1.33.55,1.96,2.08,1.41,3.41-.42,1-1.39,1.61-2.41,1.61Z"/>
      <g>
        <path class="st0" d="M259.35,224.03c-1.36,0-2.5-1.05-2.6-2.43-.1-1.44.98-2.68,2.42-2.78l39.17-2.7c1.42-.09,2.68.98,2.78,2.42.1,1.44-.98,2.68-2.42,2.78l-39.17,2.7c-.06,0-.12,0-.18,0Z"/>
        <path class="st0" d="M285.15,253.63c-.73,0-1.45-.3-1.97-.89l-25.79-29.6c-.95-1.09-.83-2.73.25-3.68,1.09-.95,2.73-.83,3.68.25l25.79,29.6c.95,1.09.83,2.73-.25,3.68-.49.43-1.11.64-1.71.64Z"/>
      </g>
    </g>
    <g>
      <path class="st0" d="M308.48,186.83h-69.27c-1.44,0-2.61-1.17-2.61-2.61s1.17-2.61,2.61-2.61h69.27c1.44,0,2.61,1.17,2.61,2.61s-1.17,2.61-2.61,2.61Z"/>
      <g>
        <path class="st0" d="M266.76,186.83c-.96,0-1.88-.53-2.34-1.45-.64-1.29-.12-2.86,1.17-3.5l35.15-17.48c1.29-.64,2.86-.12,3.5,1.17.64,1.29.12,2.86-1.17,3.5l-35.15,17.48c-.37.19-.77.27-1.16.27Z"/>
        <path class="st0" d="M301.91,204.31c-.39,0-.79-.09-1.16-.27l-35.15-17.48c-1.29-.64-1.81-2.21-1.17-3.5.64-1.29,2.21-1.81,3.5-1.17l35.15,17.48c1.29.64,1.81,2.21,1.17,3.5-.45.92-1.38,1.45-2.34,1.45Z"/>
      </g>
    </g>
    <g>
      <path class="st0" d="M233.91,160.17c-1.02,0-1.99-.61-2.41-1.61-.55-1.33.08-2.86,1.41-3.41l64-26.51c1.34-.55,2.86.08,3.41,1.41.55,1.33-.08,2.86-1.41,3.41l-64,26.51c-.33.14-.67.2-1,.2Z"/>
      <g>
        <path class="st0" d="M259.36,149.63c-.61,0-1.22-.21-1.71-.64-1.09-.95-1.2-2.59-.25-3.68l25.79-29.6c.95-1.09,2.59-1.2,3.68-.25,1.09.95,1.2,2.59.25,3.68l-25.79,29.6c-.52.59-1.24.89-1.97.89Z"/>
        <path class="st0" d="M298.53,152.32c-.06,0-.12,0-.18,0l-39.17-2.7c-1.44-.1-2.52-1.34-2.42-2.78.1-1.44,1.38-2.53,2.78-2.42l39.17,2.7c1.44.1,2.52,1.34,2.42,2.78-.09,1.38-1.24,2.43-2.6,2.43Z"/>
      </g>
    </g>
    <g>
      <path class="st0" d="M218.81,137.57c-.67,0-1.33-.25-1.84-.76-1.02-1.02-1.02-2.67,0-3.69l48.98-48.98c1.02-1.02,2.67-1.02,3.69,0s1.02,2.67,0,3.69l-48.98,48.98c-.51.51-1.18.76-1.84.76Z"/>
      <g>
        <path class="st0" d="M238.28,118.09c-.28,0-.56-.04-.83-.14-1.36-.46-2.1-1.94-1.64-3.3l12.5-37.22c.46-1.36,1.94-2.1,3.3-1.64,1.36.46,2.1,1.94,1.64,3.3l-12.5,37.22c-.37,1.09-1.38,1.78-2.47,1.78Z"/>
        <path class="st0" d="M238.28,118.09c-1.09,0-2.11-.69-2.47-1.78-.46-1.36.28-2.84,1.64-3.3l37.22-12.5c1.36-.46,2.85.28,3.3,1.64.46,1.36-.28,2.84-1.64,3.3l-37.22,12.5c-.28.09-.56.14-.83.14Z"/>
      </g>
    </g>
    <g>
      <path class="st0" d="M208.65,92.02c-.51,0-1.02-.15-1.48-.46-1.19-.82-1.49-2.44-.67-3.63l39.24-57.09c.82-1.19,2.44-1.49,3.63-.67,1.19.82,1.49,2.44.67,3.63l-39.24,57.09c-.51.74-1.32,1.13-2.15,1.13Z"/>
      <g>
        <path class="st0" d="M224.26,69.32c-.12,0-.24,0-.37-.03-1.43-.2-2.42-1.52-2.22-2.95l5.51-38.87c.2-1.43,1.53-2.41,2.95-2.22,1.43.2,2.42,1.52,2.22,2.95l-5.51,38.87c-.19,1.3-1.3,2.24-2.58,2.24Z"/>
        <path class="st0" d="M224.26,69.32c-.92,0-1.8-.48-2.28-1.34-.7-1.26-.25-2.85,1.01-3.55l34.32-19.07c1.25-.7,2.84-.25,3.55,1.01.7,1.26.25,2.85-1.01,3.55l-34.32,19.07c-.4.22-.84.33-1.26.33Z"/>
      </g>
    </g>
  </g>
  <g>
    <g>
      <path class="st0" d="M349.87,169.05v-3.72c2.86-.15,4.81-.81,5.86-1.97,1.05-1.16,1.63-2.78,1.75-4.85.11-2.07.17-4.41.17-7.04v-48.69c0-1.5.04-2.95.11-4.34.08-1.39.15-2.65.23-3.78-1.35.08-2.7.15-4.05.23-1.35.08-2.71.15-4.06.23v-4.96h25.36v3.72c-2.78.08-4.72.71-5.81,1.92-1.09,1.2-1.69,2.82-1.8,4.85-.11,2.03-.17,4.39-.17,7.1v48.35c0,2.03-.02,3.76-.06,5.18-.04,1.43-.13,2.63-.28,3.61l21.07-.34c4.73-.08,8.32-1.58,10.76-4.51,2.44-2.93,3.66-7.7,3.66-14.31h3.83l-.68,23.33h-55.9Z"/>
      <path class="st0" d="M413.77,165.67c2.33,0,3.95-.58,4.85-1.75.9-1.16,1.43-2.78,1.58-4.85.15-2.07.23-4.45.23-7.16v-25.69c0-1.2.04-2.35.11-3.44.07-1.09.19-2.38.34-3.89-1.36.07-2.69.15-4,.22-1.32.08-2.65.15-4,.23v-4.73c3.3,0,5.86-.15,7.66-.45,1.8-.3,3.17-.67,4.11-1.13.94-.45,1.67-.94,2.2-1.46h3.27v45.53c0,1.5-.02,2.84-.06,4-.04,1.17-.17,2.38-.4,3.66,1.2-.08,2.38-.13,3.55-.17s2.35-.09,3.55-.17v4.62h-22.99v-3.38ZM424.59,100.42c-1.58,0-2.97-.64-4.17-1.92-1.2-1.27-1.8-2.85-1.8-4.73s.62-3.47,1.86-4.79c1.24-1.32,2.65-1.97,4.22-1.97,1.73,0,3.18.66,4.34,1.97,1.16,1.32,1.75,2.91,1.75,4.79s-.62,3.46-1.86,4.73c-1.24,1.28-2.69,1.92-4.34,1.92Z"/>
      <path class="st0" d="M472.59,199.59c-6.76,0-12.21-.75-16.34-2.25-4.13-1.5-7.14-3.42-9.01-5.75-1.88-2.33-2.82-4.73-2.82-7.21,0-2.33.54-4.38,1.63-6.14,1.09-1.76,2.44-3.28,4.05-4.56,1.61-1.28,3.18-2.22,4.68-2.82-2.4-.83-4.3-1.93-5.69-3.32-1.39-1.39-2.09-3.25-2.09-5.58,0-2.63,1.05-5.09,3.16-7.38s4.81-3.7,8.11-4.23c-3.46-1.65-6.22-3.94-8.28-6.87-2.07-2.93-3.1-6.35-3.1-10.26,0-4.51,1.17-8.43,3.49-11.78,2.33-3.34,5.31-5.94,8.96-7.78,3.64-1.84,7.42-2.76,11.33-2.76,2.48,0,4.96.36,7.44,1.07,2.48.71,4.77,1.75,6.88,3.1.75-2.1,1.82-3.98,3.21-5.64,1.39-1.65,2.99-2.95,4.79-3.89,1.8-.94,3.68-1.41,5.64-1.41s3.43.5,4.45,1.52,1.52,2.38,1.52,4.11c0,.53-.15,1.17-.45,1.92-.3.75-.81,1.39-1.52,1.92-.71.52-1.67.79-2.87.79-1.28,0-2.33-.38-3.16-1.13-.83-.75-1.35-1.69-1.58-2.82-1.88.3-3.34,1.18-4.4,2.65-1.05,1.46-1.76,3.06-2.14,4.79,1.8,1.65,3.25,3.65,4.34,5.98,1.09,2.33,1.63,4.81,1.63,7.44,0,4.21-1.11,7.96-3.32,11.27-2.22,3.31-5.13,5.88-8.74,7.72-3.6,1.84-7.51,2.76-11.72,2.76-1.43,0-2.67-.09-3.72-.28-1.05-.19-2.33-.28-3.83-.28-2.78,0-5.04.68-6.76,2.03-1.73,1.35-2.33,2.97-1.8,4.85.6,1.8,2.44,2.95,5.52,3.44,3.08.49,7.21.84,12.4,1.07,5.78.23,10.74.9,14.87,2.03s7.31,2.87,9.53,5.24c2.22,2.36,3.32,5.58,3.32,9.64,0,3-.81,5.69-2.42,8.06-1.62,2.37-3.76,4.34-6.42,5.92-2.67,1.58-5.64,2.78-8.9,3.61-3.27.83-6.55,1.24-9.86,1.24ZM472.48,195.19c6.46,0,11.49-1.2,15.1-3.61,3.61-2.4,5.41-5.22,5.41-8.45,0-2.78-.94-4.9-2.82-6.37-1.88-1.46-4.43-2.48-7.67-3.04-3.23-.56-6.95-.88-11.16-.96-2.03-.08-4.02-.17-5.97-.28-1.96-.11-3.83-.32-5.64-.62-2.03,1.35-3.61,3.01-4.73,4.96-1.13,1.95-1.69,4.02-1.69,6.2,0,3.68,1.75,6.63,5.24,8.85,3.49,2.22,8.13,3.32,13.92,3.32ZM471.02,148.99c2.78,0,5.09-.67,6.93-2.03,1.84-1.35,3.23-3.19,4.17-5.52.94-2.33,1.41-4.96,1.41-7.89,0-3.31-.49-6.39-1.46-9.24-.98-2.85-2.42-5.14-4.34-6.88-1.92-1.73-4.34-2.59-7.27-2.59-4.06,0-7.2,1.52-9.41,4.56-2.22,3.04-3.32,6.82-3.32,11.33,0,3.61.53,6.78,1.58,9.53,1.05,2.74,2.57,4.88,4.56,6.42,1.99,1.54,4.37,2.31,7.15,2.31Z"/>
      <path class="st0" d="M543.93,165.67c2.33,0,3.95-.58,4.85-1.75.9-1.16,1.42-2.78,1.58-4.85.15-2.07.23-4.45.23-7.16v-15.78c0-6.46-1.03-11.31-3.1-14.54-2.07-3.23-5.32-4.81-9.75-4.73-2.78.08-5.51.75-8.17,2.03-2.67,1.27-4.83,2.93-6.48,4.96v33.24c0,1.5-.04,2.84-.11,4-.08,1.17-.23,2.38-.45,3.66,1.2-.08,2.38-.13,3.55-.17,1.16-.04,2.35-.09,3.55-.17v4.62h-22.99v-3.38c2.33,0,3.94-.58,4.85-1.75.9-1.16,1.44-2.78,1.63-4.85.19-2.07.28-4.45.28-7.16v-53.3c0-1.2.02-2.35.06-3.44.04-1.09.13-2.38.28-3.89-1.35.08-2.69.15-4,.23-1.32.08-2.65.15-4,.23v-4.73c3.3,0,5.88-.15,7.72-.45,1.84-.3,3.23-.67,4.17-1.13s1.67-.94,2.2-1.46h3.27v34.37c1.65-1.43,3.51-2.69,5.58-3.78,2.07-1.09,4.21-1.97,6.42-2.65,2.22-.68,4.38-1.02,6.48-1.02,6.54,0,11.25,2.05,14.15,6.14,2.89,4.1,4.37,10.46,4.45,19.1l.11,20.96c0,1.5-.02,2.84-.06,4-.04,1.17-.17,2.38-.4,3.66,1.2-.08,2.38-.13,3.55-.17s2.35-.09,3.55-.17v4.62h-22.99v-3.38Z"/>
      <path class="st0" d="M596.45,170.85c-1.73,0-3.49-.25-5.3-.73-1.8-.49-3.47-1.44-5.02-2.87-1.54-1.42-2.76-3.51-3.66-6.25-.9-2.74-1.36-6.37-1.36-10.87l.23-32.69-8.67.11v-4.85c1.95-.07,3.94-.81,5.97-2.19,2.03-1.39,3.85-3.29,5.47-5.69,1.61-2.4,2.72-5.03,3.32-7.89h3.83v15.78h18.94v4.4l-18.94.23-.23,31.33c0,3.38.28,6.26.85,8.62.56,2.37,1.48,4.15,2.76,5.35s2.93,1.8,4.96,1.8,4.08-.6,5.92-1.8c1.84-1.2,3.47-2.86,4.9-4.96l3.04,2.48c-1.65,2.48-3.29,4.43-4.9,5.86-1.62,1.43-3.18,2.5-4.68,3.21-1.5.71-2.9,1.16-4.17,1.35-1.28.19-2.36.28-3.27.28Z"/>
      <path class="st0" d="M674.09,170.85c-3.3,0-6.54-.4-9.69-1.18-3.16-.79-5.99-2.07-8.51-3.83-2.52-1.76-4.53-4.06-6.03-6.88-1.5-2.82-2.25-6.21-2.25-10.2,0-4.88,1.59-9.2,4.79-12.96,3.19-3.76,7.49-6.8,12.9-9.13-1.96-2.55-3.57-4.94-4.85-7.16-1.28-2.22-2.22-4.43-2.82-6.65-.6-2.22-.9-4.49-.9-6.82.07-5.41,2.07-9.71,5.97-12.9,3.91-3.19,8.86-4.79,14.88-4.79,3.83,0,7.16.7,9.97,2.09,2.82,1.39,5,3.27,6.54,5.63,1.54,2.37,2.31,5.06,2.31,8.06,0,2.78-.6,5.45-1.8,8-1.2,2.55-3.16,5.02-5.86,7.38-2.7,2.37-6.31,4.72-10.82,7.04,2.03,2.1,4.26,4.43,6.71,6.99,2.44,2.55,4.9,5.05,7.38,7.49,2.48,2.44,4.74,4.64,6.76,6.59.38-1.35.66-2.65.85-3.89.19-1.24.28-2.34.28-3.32,0-1.73-.25-3.43-.73-5.12-.49-1.69-1.35-3.12-2.59-4.28-1.24-1.16-2.99-1.78-5.24-1.86v-3.72h19.72v4.62l-9.35-.45c1.2.98,2.07,2.26,2.59,3.83.52,1.58.83,3.42.9,5.52.08,1.43-.06,3.25-.39,5.47-.34,2.22-.96,4.53-1.86,6.93.83.75,1.71,1.56,2.65,2.42.94.87,1.93,1.75,2.99,2.65,3.38,3.01,6.29,5.24,8.74,6.71,2.44,1.46,4.26,2.19,5.47,2.19v3.72h-10.48c-.67,0-2.2-.69-4.56-2.09-2.37-1.39-5.5-3.81-9.41-7.27-2.41,3.08-5.58,5.71-9.53,7.89-3.94,2.18-8.84,3.27-14.71,3.27ZM675.45,165.22c4.73.15,8.65-.62,11.77-2.31,3.12-1.69,5.62-3.81,7.5-6.37-.53-.52-1.05-1.03-1.58-1.52-.53-.49-1.09-1-1.69-1.53-5.04-4.96-9.49-9.35-13.36-13.18-3.87-3.83-7.16-7.29-9.86-10.37-2.4,1.43-4.28,3.2-5.64,5.3-1.35,2.1-2.31,4.21-2.87,6.31-.56,2.1-.84,3.94-.84,5.52,0,4.14.81,7.52,2.42,10.14,1.61,2.63,3.68,4.58,6.2,5.86,2.52,1.27,5.16,1.99,7.95,2.14ZM675.45,123.86c4.2-2.78,7.32-5.88,9.35-9.3,2.03-3.42,3.04-6.78,3.04-10.09,0-3.6-.94-6.59-2.82-8.96-1.88-2.37-4.55-3.55-8-3.55-3.08,0-5.66,1.15-7.72,3.44-2.07,2.29-3.1,5.54-3.1,9.75,0,3.23.88,6.42,2.65,9.58,1.76,3.16,3.96,6.2,6.59,9.13Z"/>
      <path class="st0" d="M757.71,169.05v-3.72c2.86-.15,4.81-.81,5.86-1.97,1.05-1.16,1.63-2.78,1.75-4.85.11-2.07.17-4.41.17-7.04v-48.69c0-1.5.04-2.95.11-4.34.08-1.39.15-2.65.23-3.78-1.35.08-2.7.15-4.05.23-1.35.08-2.71.15-4.06.23v-4.96h25.36v3.72c-2.78.08-4.72.71-5.81,1.92s-1.69,2.82-1.8,4.85c-.11,2.03-.17,4.39-.17,7.1v48.35c0,2.03-.02,3.76-.06,5.18-.04,1.43-.13,2.63-.28,3.61l21.07-.34c4.73-.08,8.32-1.58,10.76-4.51,2.44-2.93,3.66-7.7,3.66-14.31h3.83l-.68,23.33h-55.9Z"/>
      <path class="st0" d="M821.61,165.67c2.33,0,3.95-.58,4.85-1.75.9-1.16,1.43-2.78,1.58-4.85.15-2.07.23-4.45.23-7.16v-25.69c0-1.2.04-2.35.11-3.44.07-1.09.19-2.38.34-3.89-1.36.07-2.69.15-4,.22-1.32.08-2.65.15-4,.23v-4.73c3.3,0,5.86-.15,7.66-.45,1.8-.3,3.17-.67,4.11-1.13s1.67-.94,2.2-1.46h3.27v45.53c0,1.5-.02,2.84-.06,4-.04,1.17-.17,2.38-.4,3.66,1.2-.08,2.38-.13,3.55-.17s2.35-.09,3.55-.17v4.62h-22.99v-3.38ZM832.43,100.42c-1.58,0-2.97-.64-4.17-1.92-1.2-1.27-1.8-2.85-1.8-4.73s.62-3.47,1.86-4.79c1.24-1.32,2.65-1.97,4.22-1.97,1.73,0,3.18.66,4.34,1.97,1.16,1.32,1.75,2.91,1.75,4.79s-.62,3.46-1.86,4.73c-1.24,1.28-2.69,1.92-4.34,1.92Z"/>
      <path class="st0" d="M880.44,199.59c-6.76,0-12.21-.75-16.34-2.25-4.13-1.5-7.14-3.42-9.01-5.75-1.88-2.33-2.82-4.73-2.82-7.21,0-2.33.54-4.38,1.63-6.14,1.09-1.76,2.44-3.28,4.05-4.56,1.61-1.28,3.18-2.22,4.68-2.82-2.4-.83-4.3-1.93-5.69-3.32-1.39-1.39-2.09-3.25-2.09-5.58,0-2.63,1.05-5.09,3.16-7.38,2.1-2.29,4.81-3.7,8.11-4.23-3.46-1.65-6.22-3.94-8.28-6.87-2.07-2.93-3.1-6.35-3.1-10.26,0-4.51,1.17-8.43,3.49-11.78,2.33-3.34,5.31-5.94,8.96-7.78,3.64-1.84,7.42-2.76,11.33-2.76,2.48,0,4.96.36,7.44,1.07,2.48.71,4.77,1.75,6.88,3.1.75-2.1,1.82-3.98,3.21-5.64,1.39-1.65,2.99-2.95,4.79-3.89s3.68-1.41,5.64-1.41,3.43.5,4.45,1.52c1.01,1.01,1.52,2.38,1.52,4.11,0,.53-.15,1.17-.45,1.92s-.81,1.39-1.52,1.92-1.67.79-2.87.79c-1.28,0-2.33-.38-3.16-1.13-.83-.75-1.35-1.69-1.58-2.82-1.88.3-3.34,1.18-4.4,2.65-1.05,1.46-1.76,3.06-2.14,4.79,1.8,1.65,3.25,3.65,4.34,5.98,1.09,2.33,1.63,4.81,1.63,7.44,0,4.21-1.11,7.96-3.32,11.27-2.22,3.31-5.13,5.88-8.74,7.72-3.6,1.84-7.51,2.76-11.72,2.76-1.43,0-2.67-.09-3.72-.28-1.05-.19-2.33-.28-3.83-.28-2.78,0-5.04.68-6.76,2.03-1.73,1.35-2.33,2.97-1.8,4.85.6,1.8,2.44,2.95,5.52,3.44,3.08.49,7.21.84,12.4,1.07,5.78.23,10.74.9,14.87,2.03,4.13,1.13,7.31,2.87,9.53,5.24,2.22,2.36,3.32,5.58,3.32,9.64,0,3-.81,5.69-2.42,8.06-1.62,2.37-3.76,4.34-6.42,5.92-2.67,1.58-5.64,2.78-8.9,3.61-3.27.83-6.55,1.24-9.86,1.24ZM880.33,195.19c6.46,0,11.49-1.2,15.1-3.61,3.61-2.4,5.41-5.22,5.41-8.45,0-2.78-.94-4.9-2.82-6.37-1.88-1.46-4.43-2.48-7.67-3.04-3.23-.56-6.95-.88-11.16-.96-2.03-.08-4.02-.17-5.97-.28-1.96-.11-3.83-.32-5.64-.62-2.03,1.35-3.61,3.01-4.73,4.96-1.13,1.95-1.69,4.02-1.69,6.2,0,3.68,1.75,6.63,5.24,8.85,3.49,2.22,8.13,3.32,13.92,3.32ZM878.86,148.99c2.78,0,5.09-.67,6.93-2.03,1.84-1.35,3.23-3.19,4.17-5.52.94-2.33,1.41-4.96,1.41-7.89,0-3.31-.49-6.39-1.46-9.24-.98-2.85-2.42-5.14-4.34-6.88-1.92-1.73-4.34-2.59-7.27-2.59-4.06,0-7.2,1.52-9.41,4.56-2.22,3.04-3.32,6.82-3.32,11.33,0,3.61.53,6.78,1.58,9.53,1.05,2.74,2.57,4.88,4.56,6.42,1.99,1.54,4.37,2.31,7.15,2.31Z"/>
      <path class="st0" d="M951.78,165.67c2.33,0,3.95-.58,4.85-1.75.9-1.16,1.42-2.78,1.58-4.85.15-2.07.23-4.45.23-7.16v-15.78c0-6.46-1.03-11.31-3.1-14.54-2.07-3.23-5.32-4.81-9.75-4.73-2.78.08-5.51.75-8.17,2.03-2.67,1.27-4.83,2.93-6.48,4.96v33.24c0,1.5-.04,2.84-.11,4-.08,1.17-.23,2.38-.45,3.66,1.2-.08,2.38-.13,3.55-.17,1.16-.04,2.35-.09,3.55-.17v4.62h-22.99v-3.38c2.33,0,3.94-.58,4.85-1.75.9-1.16,1.44-2.78,1.63-4.85.19-2.07.28-4.45.28-7.16v-53.3c0-1.2.02-2.35.06-3.44.04-1.09.13-2.38.28-3.89-1.35.08-2.69.15-4,.23-1.32.08-2.65.15-4,.23v-4.73c3.3,0,5.88-.15,7.72-.45,1.84-.3,3.23-.67,4.17-1.13.94-.45,1.67-.94,2.2-1.46h3.27v34.37c1.65-1.43,3.51-2.69,5.58-3.78,2.07-1.09,4.21-1.97,6.42-2.65,2.22-.68,4.38-1.02,6.48-1.02,6.54,0,11.25,2.05,14.15,6.14,2.89,4.1,4.37,10.46,4.45,19.1l.11,20.96c0,1.5-.02,2.84-.06,4-.04,1.17-.17,2.38-.4,3.66,1.2-.08,2.38-.13,3.55-.17s2.35-.09,3.55-.17v4.62h-22.99v-3.38Z"/>
      <path class="st0" d="M1004.29,170.85c-1.73,0-3.49-.25-5.3-.73-1.8-.49-3.47-1.44-5.02-2.87-1.54-1.42-2.76-3.51-3.66-6.25-.9-2.74-1.36-6.37-1.36-10.87l.23-32.69-8.67.11v-4.85c1.95-.07,3.94-.81,5.97-2.19,2.03-1.39,3.85-3.29,5.47-5.69,1.61-2.4,2.72-5.03,3.32-7.89h3.83v15.78h18.94v4.4l-18.94.23-.23,31.33c0,3.38.28,6.26.85,8.62.56,2.37,1.48,4.15,2.76,5.35,1.28,1.2,2.93,1.8,4.96,1.8s4.08-.6,5.92-1.8c1.84-1.2,3.47-2.86,4.9-4.96l3.04,2.48c-1.65,2.48-3.29,4.43-4.9,5.86-1.62,1.43-3.18,2.5-4.68,3.21-1.5.71-2.9,1.16-4.17,1.35-1.28.19-2.36.28-3.27.28Z"/>
    </g>
    <g>
      <path class="st0" d="M350.3,287.18v-7.65c2.01,0,3.62-.59,4.84-1.78,1.21-1.18,2.24-2.74,3.06-4.66.82-1.92,1.63-3.99,2.42-6.21l20.96-59.35h7.52l22.9,60.46c.43,1.11,1,2.79,1.72,5.05.71,2.26,1.15,4.24,1.29,5.94,1.22-.15,2.38-.24,3.49-.27,1.11-.04,2.02-.06,2.74-.06v8.54h-28.92v-7.32c2.01,0,3.39-.42,4.14-1.27.75-.85,1.09-2.01,1.02-3.49-.07-1.48-.47-3.14-1.18-4.99l-2.15-6.1-23.33.44-1.72,5.21c-.36.96-.88,2.38-1.56,4.27-.68,1.89-1.31,3.46-1.88,4.72,1.14-.15,2.53-.24,4.14-.28,1.61-.04,2.78-.06,3.49-.06v8.88h-23ZM373.52,256.12h17.95l-4.95-13.86c-.93-2.66-1.76-5.34-2.47-8.05-.72-2.7-1.25-5.08-1.61-7.15h-.11c-.29,1.26-.72,3.14-1.29,5.66-.57,2.51-1.47,5.51-2.69,8.99l-4.84,14.42Z"/>
      <path class="st0" d="M504.02,234.38c-.93-6.14-2.92-10.76-5.97-13.86-3.05-3.11-7.08-4.7-12.09-4.77-3.73,0-6.99.89-9.78,2.66-2.79,1.78-5.1,4.14-6.93,7.1-1.83,2.96-3.19,6.32-4.08,10.1-.9,3.77-1.35,7.65-1.35,11.65,0,6.36.88,12,2.63,16.92,1.76,4.92,4.32,8.78,7.69,11.59,3.37,2.81,7.45,4.22,12.26,4.22,4.51,0,8.99-1.2,13.44-3.61,4.44-2.4,8.17-5.75,11.18-10.04l5.16,4.88c-3.51,4.95-7.2,8.71-11.08,11.26-3.87,2.55-7.65,4.27-11.34,5.16-3.69.89-7.01,1.33-9.95,1.33-5.52,0-10.53-1.02-15.05-3.05-4.51-2.03-8.4-4.85-11.66-8.43-3.26-3.59-5.77-7.76-7.52-12.54-1.76-4.77-2.63-9.93-2.63-15.47,0-5.03.79-10.02,2.36-14.98,1.57-4.95,3.92-9.45,7.04-13.48,3.11-4.03,7.04-7.25,11.77-9.65,4.73-2.4,10.21-3.6,16.45-3.6,2.79,0,5.86.46,9.19,1.38,3.33.93,6.46,2.28,9.41,4.05l-.43-4.66h8.28v25.85h-6.99Z"/>
      <path class="st0" d="M539.07,287.18v-7.65c2.01,0,3.62-.59,4.84-1.78,1.21-1.18,2.24-2.74,3.06-4.66.82-1.92,1.63-3.99,2.42-6.21l20.96-59.35h7.52l22.9,60.46c.43,1.11,1,2.79,1.72,5.05.71,2.26,1.15,4.24,1.29,5.94,1.22-.15,2.38-.24,3.49-.27,1.11-.04,2.02-.06,2.74-.06v8.54h-28.92v-7.32c2.01,0,3.39-.42,4.14-1.27.75-.85,1.09-2.01,1.02-3.49-.07-1.48-.47-3.14-1.18-4.99l-2.15-6.1-23.33.44-1.72,5.21c-.36.96-.88,2.38-1.56,4.27-.68,1.89-1.31,3.46-1.88,4.72,1.14-.15,2.53-.24,4.14-.28,1.61-.04,2.78-.06,3.49-.06v8.88h-23ZM562.29,256.12h17.95l-4.95-13.86c-.93-2.66-1.76-5.34-2.47-8.05-.72-2.7-1.25-5.08-1.61-7.15h-.11c-.29,1.26-.72,3.14-1.29,5.66-.57,2.51-1.47,5.51-2.69,8.99l-4.84,14.42Z"/>
      <path class="st0" d="M637.32,279.86c1.65-.07,3.03-.29,4.14-.67,1.11-.37,1.97-1.22,2.58-2.55.61-1.33.92-3.47.92-6.44v-42.49c0-2,.05-3.92.16-5.77.1-1.85.19-3.25.27-4.22-1.15.08-2.58.13-4.3.17-1.72.04-2.98.1-3.76.17v-8.54l31.28-.11c7.1,0,13.24,1.09,18.44,3.27,5.19,2.18,9.46,5.12,12.79,8.82,3.33,3.7,5.82,7.82,7.47,12.37,1.65,4.55,2.47,9.11,2.47,13.7s-.77,9.1-2.31,13.76c-1.54,4.66-3.96,8.93-7.26,12.81-3.3,3.89-7.6,7.03-12.9,9.43-5.3,2.4-11.72,3.61-19.24,3.61h-30.75v-7.32ZM660.54,268.99c0,2-.04,3.92-.11,5.77-.07,1.85-.18,3.25-.32,4.21.72-.07,1.7-.09,2.96-.05s2.56.07,3.93.11c1.36.04,2.47.06,3.33.06,3.94,0,7.32-.82,10.16-2.44s5.16-3.83,6.99-6.6c1.83-2.77,3.17-5.89,4.03-9.37.86-3.48,1.29-7.06,1.29-10.76,0-7.55-1-13.72-3.01-18.53-2.01-4.81-4.82-8.39-8.44-10.76-3.62-2.36-7.94-3.62-12.96-3.77-1.72-.07-3.17.09-4.35.5-1.18.41-2.06,1.27-2.63,2.61-.57,1.33-.86,3.44-.86,6.32v42.71Z"/>
      <path class="st0" d="M776.97,260.45c0-3.11-.47-5.36-1.4-6.77-.93-1.4-2.2-2.28-3.81-2.61-1.61-.33-3.39-.46-5.32-.39l-2.8.11v18.19c0,2-.04,3.88-.11,5.66-.07,1.78-.18,3.14-.32,4.1h14.41c2.15,0,4.22-.5,6.23-1.5,2.01-1,3.66-2.66,4.95-4.99,1.29-2.33,1.93-5.49,1.93-9.49h6.99l-.54,24.41h-56.76v-7.32c1.65-.07,3.03-.29,4.14-.67,1.11-.37,1.97-1.22,2.58-2.55.61-1.33.92-3.47.92-6.44v-42.49c0-2,.05-3.92.16-5.77.1-1.85.19-3.25.27-4.22-1.15.08-2.58.13-4.3.17-1.72.04-2.98.1-3.76.17v-8.54h53.75l.65,21.52h-7.1c0-4.07-.68-7.14-2.04-9.21-1.36-2.07-3.05-3.46-5.05-4.16-2.01-.7-3.98-1.01-5.92-.94l-3.87.11c-1.5,0-2.8.21-3.87.61-1.07.41-1.9,1.3-2.47,2.66-.57,1.37-.86,3.49-.86,6.38v16.64h12.58l-.43-9.66h8.28v26.96h-7.09Z"/>
      <path class="st0" d="M867.47,288.29c-2.44-6.14-4.85-12.24-7.25-18.31-2.4-6.06-4.82-12.13-7.25-18.19-.58-1.4-1.31-3.38-2.21-5.94-.9-2.55-1.83-5.49-2.79-8.82-.97-3.33-1.85-6.77-2.63-10.32.14,4.14.25,8.05.32,11.7.07,3.66.07,7.15,0,10.48v5c0,1.7-.02,3.38-.05,5.05-.04,1.66-.06,3.32-.06,4.99v5.05c0,2-.05,3.92-.16,5.77-.1,1.85-.23,3.25-.38,4.21,1.22-.15,2.7-.24,4.46-.27,1.76-.04,2.99-.06,3.71-.06v8.54h-24.51v-7.32c1.65-.07,3.03-.29,4.14-.67,1.11-.37,1.97-1.22,2.58-2.55.61-1.33.92-3.47.92-6.44l.65-42.49c.07-2,.14-3.92.21-5.77.07-1.85.14-3.25.21-4.22-1.15.08-2.58.13-4.3.17-1.72.04-2.98.1-3.76.17v-8.54h23.76l16.23,42.93c.65,1.7,1.36,3.68,2.15,5.94.79,2.26,1.54,4.44,2.26,6.54.71,2.11,1.25,3.79,1.61,5.05h.11c.93-2.59,1.79-5.1,2.58-7.54.79-2.44,1.61-4.81,2.47-7.1,2.8-7.69,5.57-15.34,8.33-22.96,2.76-7.62,5.54-15.24,8.33-22.85h24.83v7.32c-1.57.08-2.97.3-4.19.67-1.22.37-2.13,1.2-2.74,2.5-.61,1.3-.88,3.46-.81,6.49l1.61,42.49c.14,2,.14,3.92,0,5.77-.15,1.85-.29,3.25-.43,4.21,1.22-.15,2.7-.24,4.46-.27,1.76-.04,2.99-.06,3.71-.06v8.54h-29.89v-7.32c1.65-.07,3.07-.29,4.25-.67,1.18-.37,2.08-1.22,2.69-2.55.61-1.33.84-3.47.7-6.44l-.86-23.52c0-.89-.07-2.42-.21-4.6-.15-2.18-.27-4.58-.38-7.21-.1-2.62-.2-5.08-.27-7.38-.22.52-.43,1.02-.65,1.5-.21.48-.4.98-.54,1.5l-20.96,57.8h-10Z"/>
      <path class="st0" d="M971.43,287.18v-7.32c1.65-.07,3.03-.29,4.14-.67,1.11-.37,1.97-1.22,2.58-2.55.61-1.33.91-3.47.91-6.44v-9.65l-19.78-32.28c-1-1.7-1.94-3.59-2.8-5.66-.86-2.07-1.29-3.7-1.29-4.88-1.15.08-2.11.13-2.9.17-.79.04-1.58.1-2.36.17v-8.54h31.71v7.32c-2.08-.15-3.8.08-5.16.67-1.36.59-2.19,1.54-2.47,2.83-.29,1.3.14,2.98,1.29,5.05l8.17,13.87c.36.59.89,1.54,1.61,2.83.72,1.3,1.45,2.66,2.2,4.11.75,1.44,1.31,2.72,1.67,3.82h.11c.36-.89.97-2.22,1.83-3.99.86-1.78,1.94-4.06,3.22-6.88l5.59-11.32c.36-.81.86-1.86,1.5-3.16.65-1.3,1.34-2.59,2.09-3.89.75-1.29,1.45-2.34,2.1-3.16-1.15.07-2.62.15-4.41.22-1.79.07-3.08.15-3.87.22v-8.54h23.76v7.32c-2.51.37-4.66,1.42-6.45,3.16-1.79,1.74-3.73,4.64-5.81,8.71-2.3,4.59-4.62,9.21-6.99,13.87-2.36,4.66-4.69,9.28-6.99,13.87v12.54c0,2-.04,3.92-.1,5.77-.07,1.85-.18,3.25-.32,4.21,1.22-.15,2.78-.24,4.68-.27,1.9-.04,3.21-.06,3.92-.06v8.54h-31.39Z"/>
    </g>
    <path class="st0" d="M1021.31,189.21h-99.13c-1.48,0-2.69-1.2-2.69-2.69s1.2-2.69,2.69-2.69h99.13c1.48,0,2.69,1.2,2.69,2.69s-1.2,2.69-2.69,2.69Z"/>
    <path class="st0" d="M839.21,189.21h-326.23c-1.48,0-2.69-1.2-2.69-2.69s1.2-2.69,2.69-2.69h326.23c1.48,0,2.69,1.2,2.69,2.69s-1.2,2.69-2.69,2.69Z"/>
    <path class="st0" d="M431.38,189.21h-81.51c-1.48,0-2.69-1.2-2.69-2.69s1.2-2.69,2.69-2.69h81.51c1.48,0,2.69,1.2,2.69,2.69s-1.2,2.69-2.69,2.69Z"/>
  </g>
</svg>